<svg xmlns="http://www.w3.org/2000/svg" viewBox="0 0 1200 500" preserveAspectRatio="xMidYMid slice">
  <defs>
    <linearGradient id="bg" x1="0" y1="0" x2="1" y2="1">
      <stop offset="0" stop-color="#1a0406"/><stop offset="1" stop-color="#050505"/>
    </linearGradient>
    <radialGradient id="glow" cx="50%" cy="50%" r="50%">
      <stop offset="0" stop-color="#eb0029" stop-opacity=".28"/><stop offset="1" stop-color="#eb0029" stop-opacity="0"/>
    </radialGradient>
  </defs>
  <rect width="1200" height="500" fill="url(#bg)"/>
  <ellipse cx="820" cy="300" rx="420" ry="180" fill="url(#glow)"/>
  <!-- speed lines -->
  <g stroke="#eb0029" stroke-width="6" stroke-linecap="round" opacity=".55">
    <path d="M110 205h190"/><path d="M80 250h250"/><path d="M130 295h170"/>
  </g>
  <!-- car silhouette (side view) -->
  <g transform="translate(545 150) scale(3.5)">
    <path d="M6 66c0-2 1-3 3-4l3-1 9-13c2-3 5-5 9-5h24c5 0 9 2 12 6l6 9 8 2c4 1 7 4 7 8v6c0 2-1 3-3 3h-7a10 10 0 0 1-20 0H43a10 10 0 0 1-20 0H9c-2 0-3-1-3-3z" fill="#eb0029"/>
    <path d="M34 44h18c2 0 3 1 4 3l4 6c1 1 0 3-2 3H29c-2 0-3-2-2-3l4-7c1-1 2-2 3-2z" fill="#ffffff" fill-opacity=".18"/>
    <circle cx="33" cy="72" r="9" fill="#0a0a0a"/><circle cx="33" cy="72" r="4" fill="#eb0029"/>
    <circle cx="71" cy="72" r="9" fill="#0a0a0a"/><circle cx="71" cy="72" r="4" fill="#eb0029"/>
  </g>
</svg>
