<svg xmlns="http://www.w3.org/2000/svg" viewBox="0 0 100 100" fill="none">
  <!-- car body (side view) -->
  <path d="M6 66c0-2 1-3 3-4l3-1 9-13c2-3 5-5 9-5h24c5 0 9 2 12 6l6 9 8 2c4 1 7 4 7 8v6c0 2-1 3-3 3h-7a10 10 0 0 1-20 0H43a10 10 0 0 1-20 0H9c-2 0-3-1-3-3z" fill="#eb0029"/>
  <!-- windows -->
  <path d="M34 44h18c2 0 3 1 4 3l4 6c1 1 0 3-2 3H29c-2 0-3-2-2-3l4-7c1-1 2-2 3-2z" fill="#ffffff" fill-opacity=".92"/>
  <!-- head/tail light -->
  <rect x="82" y="60" width="6" height="5" rx="2" fill="#ffd24d"/>
  <!-- wheels -->
  <circle cx="33" cy="72" r="9" fill="#111111"/><circle cx="33" cy="72" r="4" fill="#eb0029"/>
  <circle cx="71" cy="72" r="9" fill="#111111"/><circle cx="71" cy="72" r="4" fill="#eb0029"/>
</svg>
