<svg xmlns="http://www.w3.org/2000/svg" width="67" height="51" viewBox="0 0 67 51" fill="none">
<path d="M4.49361 49.061C3.51209 48.4307 3.073 47.9085 2.26322 47.0627C1.55807 46.3261 1.00178 45.995 0.585091 45.0585C0.154959 44.0918 0.178406 43.4263 0.225271 42.3665C0.268987 41.3779 0.364619 40.7977 0.751441 39.8898C1.01316 39.2755 1.24136 38.9683 1.61964 38.4204C2.0766 37.7585 2.368 37.4077 2.92847 36.834C3.90728 35.8321 4.82037 35.6929 5.77769 34.6697C6.58638 33.8054 7.02517 33.2625 7.51884 32.1802C8.00747 31.1089 8.16878 30.4292 8.26117 29.2519C8.35064 28.1117 8.27345 27.446 8.00943 26.3341C7.73681 25.1859 7.20677 24.6699 6.87526 23.5379C6.48865 22.2177 6.28611 21.4394 6.28623 20.062C6.28634 18.7712 6.41291 18.0269 6.8041 16.7991C7.16079 15.6795 7.3941 15.0213 8.10106 14.0896C8.90756 13.0267 9.57309 12.5756 10.7294 11.9276C11.5783 11.452 12.0841 11.172 13.0394 11.0046C14.1479 10.8104 14.7965 11.064 15.9135 11.1989C16.5861 11.2802 16.9588 11.3591 17.6285 11.4616C18.2982 11.5642 18.6682 11.6712 19.3435 11.7244C20.1607 11.7886 20.6276 11.7946 21.4421 11.7022C21.9636 11.643 22.2559 11.5925 22.7651 11.4636C23.7989 11.2018 24.387 10.9926 25.2948 10.4259C26.1043 9.92063 26.5291 9.55938 27.1559 8.83371C27.9223 7.94647 28.0662 7.23977 28.675 6.23418C29.2143 5.34333 29.4205 4.76951 30.0871 3.97275C30.7208 3.21548 31.1432 2.83432 31.947 2.26822C32.6291 1.78793 33.0228 1.49144 33.8141 1.23758C34.5999 0.985436 35.0523 0.831623 35.8746 0.774952C36.8644 0.706727 37.4741 0.785872 38.4507 0.963964C39.3105 1.12075 39.7745 1.33418 40.5576 1.728C41.5017 2.20281 42.0237 2.53497 42.7832 3.27706C43.5174 3.99446 43.8209 4.51135 44.3521 5.39468C44.9463 6.38281 45.0013 7.08925 45.5955 8.07737C46.1267 8.96071 46.4117 9.4977 47.1644 10.195C47.9521 10.9247 48.5231 11.1964 49.4993 11.6306C50.2493 11.9641 50.6868 12.1488 51.4946 12.2835C52.4311 12.4396 52.9756 12.2678 53.9245 12.2578C55.7793 12.2382 56.8313 11.9904 58.674 12.2077C59.59 12.3156 60.1278 12.3224 60.9982 12.6324C61.6355 12.8594 61.976 13.0453 62.5528 13.4023C63.3645 13.9045 63.8038 14.2438 64.4471 14.9548C65.0143 15.5817 65.2814 15.9904 65.6811 16.739C66.2864 17.873 66.5359 18.5952 66.7084 19.8733C66.8257 20.7425 66.8773 21.2549 66.7321 22.1196C66.6173 22.8032 66.4396 23.1618 66.1976 23.8101C65.8758 24.6721 65.5317 25.0864 65.2261 25.9545C64.8805 26.936 64.7701 27.5183 64.5906 28.5447C64.2052 30.7488 64.6569 32.0483 64.4302 34.275C64.2133 36.4057 64.0964 37.6244 63.4931 39.6766C63.1489 40.8472 62.9348 41.5048 62.4194 42.6084C61.9466 43.6208 61.6801 44.205 61.0096 45.0944C59.9479 46.5027 59.114 47.1399 57.6164 48.0507C56.6054 48.6656 55.9803 48.9204 54.8681 49.3154C53.574 49.7749 52.8068 49.9226 51.4524 50.1377C50.511 50.2872 49.9776 50.3674 49.0248 50.388C47.9432 50.4113 47.3249 50.3936 46.2612 50.1925C44.6229 49.8828 43.7555 49.4267 42.2683 48.6621C40.9867 48.0032 40.4007 47.3985 39.1543 46.6731C38.0486 46.0296 37.4684 45.5589 36.2659 45.1311C34.9001 44.6452 34.0574 44.5958 32.6139 44.4957C31.4949 44.4181 30.856 44.3936 29.7421 44.526C28.5571 44.6668 27.9114 44.8885 26.767 45.2314C25.6287 45.5724 24.9587 45.7156 23.9059 46.2725C22.8339 46.8396 22.4014 47.4325 21.3845 48.0964C20.5067 48.6694 20.0293 49.0305 19.0792 49.4686C18.0107 49.9614 17.3546 50.1051 16.217 50.3974C14.9863 50.7137 14.2869 50.9157 13.0198 50.9928C11.2413 51.101 8.48531 50.4791 8.48531 50.4791C8.48531 50.4791 5.88983 49.9576 4.49361 49.061Z" fill="#FFA551"/>
</svg>
